<?xml version="1.0" encoding="UTF-8" standalone="no"?>
<!-- Created with Inkscape (http://www.inkscape.org/) -->
<svg
   xmlns:dc="http://purl.org/dc/elements/1.1/"
   xmlns:cc="http://creativecommons.org/ns#"
   xmlns:rdf="http://www.w3.org/1999/02/22-rdf-syntax-ns#"
   xmlns:svg="http://www.w3.org/2000/svg"
   xmlns="http://www.w3.org/2000/svg"
   xmlns:xlink="http://www.w3.org/1999/xlink"
   xmlns:sodipodi="http://sodipodi.sourceforge.net/DTD/sodipodi-0.dtd"
   xmlns:inkscape="http://www.inkscape.org/namespaces/inkscape"
   width="372.04724"
   height="524.40942"
   id="svg2"
   sodipodi:version="0.32"
   inkscape:version="0.46"
   sodipodi:docbase="/home/mike/Dokumente/Projekte/Beilpuz"
   sodipodi:docname="Logo.svg"
   inkscape:output_extension="org.inkscape.output.svg.inkscape"
   version="1.0"
   inkscape:export-filename="/home/mike/Dokumente/Projekte/Beilpuz/Logo.png"
   inkscape:export-xdpi="90"
   inkscape:export-ydpi="90">
  <defs
     id="defs4">
    <linearGradient
       id="linearGradient3234">
      <stop
         id="stop3236"
         offset="0"
         style="stop-color:#ffffff;stop-opacity:1;" />
      <stop
         style="stop-color:#ffffff;stop-opacity:0.33333334;"
         offset="0.30000001"
         id="stop3238" />
      <stop
         id="stop3240"
         offset="1"
         style="stop-color:#ffffff;stop-opacity:0;" />
    </linearGradient>
    <inkscape:perspective
       id="perspective3245"
       inkscape:persp3d-origin="160.90911 : 324.81038 : 1"
       inkscape:vp_z="195.06901 : 340.86012 : 1"
       inkscape:vp_y="1.124385e-14 : 183.63206 : 0"
       inkscape:vp_x="124.83029 : 344.31419 : 1"
       sodipodi:type="inkscape:persp3d" />
    <inkscape:perspective
       sodipodi:type="inkscape:persp3d"
       inkscape:vp_x="107.56565 : 345.54426 : 1"
       inkscape:vp_y="1.8695262e-14 : 305.32687 : 0"
       inkscape:vp_z="224.35229 : 339.80114 : 1"
       inkscape:persp3d-origin="167.55427 : 313.11509 : 1"
       id="perspective21" />
    <linearGradient
       id="linearGradient5133">
      <stop
         style="stop-color:#ffffff;stop-opacity:0.4537445;"
         offset="0"
         id="stop5135" />
      <stop
         style="stop-color:#ffffff;stop-opacity:0;"
         offset="1"
         id="stop5137" />
    </linearGradient>
    <linearGradient
       inkscape:collect="always"
       xlink:href="#linearGradient5133"
       id="linearGradient5139"
       x1="157.82188"
       y1="146.6479"
       x2="156.79823"
       y2="189.15015"
       gradientUnits="userSpaceOnUse"
       gradientTransform="matrix(0.5921071,0,0,0.7196416,19.691949,42.974636)" />
    <mask
       maskUnits="userSpaceOnUse"
       id="mask2446">
      <rect
         rx="9.6043997"
         ry="9.7530565"
         y="147.93263"
         x="19.749979"
         height="84.998779"
         width="204.27989"
         id="rect2448"
         style="opacity:1;fill:#ff0000;fill-opacity:1;stroke:none;stroke-width:0.56625003;stroke-miterlimit:4;stroke-dasharray:none;stroke-opacity:1"
         transform="matrix(0.999969,-7.8727164e-3,5.0202617e-3,0.9999874,0,0)" />
    </mask>
    <linearGradient
       inkscape:collect="always"
       xlink:href="#linearGradient5133"
       id="linearGradient2450"
       gradientUnits="userSpaceOnUse"
       gradientTransform="matrix(0.5921161,0,0,1.0092615,20.963835,-2.6286721)"
       x1="157.86124"
       y1="151.24817"
       x2="157.97539"
       y2="189.2151" />
    <linearGradient
       inkscape:collect="always"
       xlink:href="#linearGradient3234"
       id="linearGradient3230"
       x1="16.42778"
       y1="164.73814"
       x2="120.71807"
       y2="164.73814"
       gradientUnits="userSpaceOnUse"
       gradientTransform="matrix(0.7014867,0,0,4.0919539,118.22194,-799.46194)" />
  </defs>
  <sodipodi:namedview
     id="base"
     pagecolor="#ffffff"
     bordercolor="#666666"
     borderopacity="1.0"
     inkscape:pageopacity="0.0"
     inkscape:pageshadow="2"
     inkscape:zoom="1.9816719"
     inkscape:cx="119.32976"
     inkscape:cy="329.66557"
     inkscape:document-units="px"
     inkscape:current-layer="layer5"
     inkscape:window-width="1045"
     inkscape:window-height="668"
     inkscape:window-x="131"
     inkscape:window-y="44"
     showguides="true"
     inkscape:guide-bbox="true"
     width="372.04724px"
     height="524.40945px"
     showgrid="false">
    <sodipodi:guide
       orientation="horizontal"
       position="883.57143"
       id="guide2192" />
    <sodipodi:guide
       orientation="horizontal"
       position="840.71429"
       id="guide2194" />
  </sodipodi:namedview>
  <metadata
     id="metadata7">
    <rdf:RDF>
      <cc:Work
         rdf:about="">
        <dc:format>image/svg+xml</dc:format>
        <dc:type
           rdf:resource="http://purl.org/dc/dcmitype/StillImage" />
      </cc:Work>
    </rdf:RDF>
  </metadata>
  <g
     inkscape:label="Ebene 1"
     inkscape:groupmode="layer"
     id="layer1"
     sodipodi:insensitive="true">
    <rect
       style="opacity:1;fill:#755068;fill-opacity:1;stroke:none;stroke-width:0.56625003;stroke-miterlimit:4;stroke-dasharray:none;stroke-opacity:1"
       id="rect4158"
       width="204.2753"
       height="85"
       x="19.999998"
       y="148.04121"
       ry="9.7531958"
       rx="9.6041842" />
  </g>
  <g
     inkscape:groupmode="layer"
     id="layer5"
     inkscape:label="Verlauf">
    <rect
       style="opacity:1;fill:url(#linearGradient3230);fill-opacity:1;stroke:none;stroke-opacity:1"
       id="rect3222"
       width="54.961956"
       height="206.61362"
       x="147.94211"
       y="-225.76598"
       transform="matrix(0,1,-1,0,0,0)" />
  </g>
  <g
     inkscape:groupmode="layer"
     id="layer2"
     inkscape:label="Schriftzug"
     sodipodi:insensitive="true">
    <g
       id="g4151"
       transform="translate(-33.139023,4.606686)">
      <path
         d="M 132.5625,155.03125 C 129.8477,155.03132 127.01016,156.23991 125.09375,158.15625 C 123.18461,160.06544 122.03125,162.89523 122.03125,165.5625 C 122.03123,168.15562 123.17368,170.8598 124.90625,172.75 C 124.82377,172.87062 124.76411,173.00034 124.6875,173.125 C 120.96277,170.32391 116.47609,168.71878 111.71875,168.71875 C 106.28801,168.71879 101.16335,170.7164 97.1875,174.3125 C 97.187459,169.3026 95.202729,164.48938 91.65625,161 C 88.145415,157.48926 83.366733,155.5938 78.375,155.59375 C 73.383259,155.59382 68.589798,157.53526 65.09375,161.03125 C 61.597723,164.52733 59.656249,169.32075 59.65625,174.3125 L 59.65625,202.21875 C 59.656244,204.60804 60.645235,207.27026 62.40625,209.03125 C 62.437102,209.0629 62.468354,209.09415 62.5,209.125 C 64.33079,210.85944 66.914625,211.71875 69.25,211.71875 C 70.786196,211.71875 72.376032,211.18095 73.84375,210.40625 C 75.28158,211.17173 76.835947,211.71875 78.375,211.71875 C 83.366757,211.71875 88.176659,209.79206 91.6875,206.28125 C 92.696047,205.28896 93.538956,204.17721 94.28125,203 C 94.92054,203.88948 95.563937,204.77201 96.34375,205.5625 C 96.354123,205.57296 96.364539,205.58338 96.375,205.59375 C 100.43994,209.6587 105.93175,211.84375 111.71875,211.84375 L 117.40625,211.84375 C 119.79555,211.84375 122.50525,210.8416 124.25,209 C 124.5668,208.68319 124.70853,208.23811 124.96875,207.875 C 125.20798,208.21664 125.34033,208.63702 125.625,208.9375 C 125.6859,209.00158 125.74842,209.0641 125.8125,209.125 C 127.64329,210.85945 130.22713,211.71875 132.5625,211.71875 C 134.65452,211.71875 136.8869,210.89512 138.625,209.53125 C 140.3928,210.9117 142.60209,211.71875 144.6875,211.71875 C 145.53713,211.71875 146.41422,211.48255 147.28125,211.25 L 147.28125,215.28125 C 147.28125,217.61659 148.18658,220.21779 149.875,222 C 149.90585,222.03165 149.9371,222.0629 149.96875,222.09375 C 151.77713,223.90211 154.42322,224.84373 156.8125,224.84375 C 159.20175,224.84373 161.86401,223.85472 163.625,222.09375 C 165.38587,220.33281 166.37498,217.67053 166.375,215.28125 L 166.375,211.375 C 167.19878,211.58651 168.03684,211.84375 168.84375,211.84375 C 174.63073,211.84375 180.10346,209.6465 184.15625,205.59375 C 184.97825,204.77174 185.67539,203.868 186.34375,202.9375 C 187.07609,204.1082 187.91776,205.23026 188.90625,206.21875 C 192.47275,209.78527 197.37033,211.71875 202.46875,211.71875 C 206.51359,211.71875 210.40919,210.42827 213.625,208.125 C 214.2146,208.97528 214.88463,209.75881 215.6875,210.25 C 217.78977,211.53614 219.84675,211.71875 221.9375,211.71875 L 239.84375,211.71875 C 242.22861,211.71875 244.8467,210.747 246.625,208.96875 C 248.3558,207.23789 249.37494,204.60354 249.375,202.21875 C 249.37494,199.82954 248.38586,197.1672 246.625,195.40625 C 245.41944,194.13378 243.84478,193.48361 242.21875,193.09375 C 242.7991,192.41689 244.17032,190.87686 244.5625,190.40625 C 248.7481,185.40173 251.65618,182.0434 251.65625,176.75 C 251.65621,174.40115 250.12164,171.46852 248.03125,170.1875 C 245.94086,168.90648 243.90933,168.71877 241.84375,168.71875 L 224.0625,168.71875 C 221.94329,168.7188 219.69758,169.57109 217.9375,171 C 216.2201,169.59653 214.01049,168.7188 211.9375,168.71875 C 209.54829,168.71881 206.90215,169.66035 205.09375,171.46875 C 203.27056,173.196 202.49431,175.72346 202.4375,177.96875 C 202.34254,175.67754 201.42109,173.20242 199.75,171.53125 C 197.989,169.77034 195.32666,168.78132 192.9375,168.78125 C 190.54826,168.78131 187.90213,169.72294 186.09375,171.53125 C 186.0621,171.5621 186.03085,171.59335 186,171.625 C 185.13305,172.54015 184.46687,173.67593 184.03125,174.875 C 179.98694,170.87381 174.59246,168.71879 168.84375,168.71875 C 163.38976,168.71879 158.23256,170.71787 154.25,174.34375 L 154.25,165.21875 C 154.24999,162.91161 153.59029,160.21857 151.625,158.28125 C 149.65971,156.34393 146.99116,155.71879 144.6875,155.71875 C 142.78924,155.71881 140.83056,156.47449 139.15625,157.625 C 137.34094,156.05686 134.98826,155.03133 132.5625,155.03125 z M 221.4375,187.25 C 221.47954,187.26186 221.52037,187.26994 221.5625,187.28125 C 221.53366,187.3145 221.46554,187.40514 221.4375,187.4375 L 221.4375,187.25 z M 168.84375,187.78125 C 169.74299,187.78126 169.96876,187.87502 170.59375,188.5 C 170.61441,188.52101 170.63524,188.54184 170.65625,188.5625 C 171.28528,189.17407 171.34374,189.33216 171.34375,190.25 C 171.34374,191.16792 171.26044,191.3958 170.59375,192.0625 C 169.96875,192.68749 169.74293,192.78125 168.84375,192.78125 C 168.03685,192.78126 167.19878,193.03849 166.375,193.25 L 166.375,190.25 C 166.375,189.29982 166.46327,189.09923 167.0625,188.5 C 167.6617,187.9008 167.94445,187.78126 168.84375,187.78125 z M 123.03125,192.59375 L 123.03125,194.8125 C 122.59357,194.49179 122.17765,194.14768 121.6875,193.90625 L 123.03125,192.59375 z"
         inkscape:href="#text3171"
         id="path3175"
         style="font-size:64px;font-style:normal;font-variant:normal;font-weight:normal;font-stretch:normal;text-align:start;line-height:100%;writing-mode:lr-tb;text-anchor:start;opacity:0.4;fill:#000000;fill-opacity:1;stroke:none;stroke-width:1px;stroke-linecap:butt;stroke-linejoin:miter;stroke-opacity:1;font-family:Alba Super"
         xlink:href="#text3171"
         inkscape:original="M 132.5625 160.25 C 131.11182 160.25004 129.84791 160.77713 128.78125 161.84375 C 127.75724 162.86779 127.25 164.11188 127.25 165.5625 C 127.24999 167.01321 127.75725 168.24587 128.78125 169.3125 C 129.84791 170.33654 131.11183 170.87504 132.5625 170.875 C 134.01315 170.87504 135.22599 170.33654 136.25 169.3125 C 137.31666 168.24587 137.87499 167.01321 137.875 165.5625 C 137.87498 164.11188 137.31665 162.86779 136.25 161.84375 C 135.22599 160.77712 134.01316 160.25005 132.5625 160.25 z M 78.375 160.8125 C 74.577654 160.81255 71.38391 162.11613 68.78125 164.71875 C 66.178579 167.32146 64.874999 170.5152 64.875 174.3125 L 64.875 202.21875 C 64.874997 203.49875 65.283079 204.53309 66.09375 205.34375 C 66.904411 206.11175 67.969991 206.5 69.25 206.5 C 70.529991 206.5 71.544489 206.11175 72.3125 205.34375 C 73.123155 204.53308 73.531241 203.49876 73.53125 202.21875 L 73.53125 174.3125 C 73.531238 172.98987 73.998819 171.8762 74.9375 170.9375 C 75.918819 169.9562 77.052315 169.46878 78.375 169.46875 C 79.740315 169.46879 80.905067 169.93638 81.84375 170.875 C 82.825062 171.8137 83.312481 172.9472 83.3125 174.3125 C 83.312478 175.67786 82.825065 176.84262 81.84375 177.78125 C 80.905064 178.71994 79.740312 179.20736 78.375 179.25 C 77.009651 179.29269 75.895989 179.70078 75 180.46875 C 74.103987 181.23677 73.656235 182.25127 73.65625 183.53125 C 73.656238 184.68327 74.064322 185.6581 74.875 186.46875 C 75.728319 187.23677 76.742821 187.68452 77.9375 187.8125 C 79.388149 187.98318 80.652066 188.56135 81.71875 189.5 C 82.785395 190.43868 83.312481 191.59201 83.3125 193 C 83.312478 194.32268 82.825065 195.48743 81.84375 196.46875 C 80.905064 197.40743 79.76015 197.875 78.4375 197.875 C 77.157484 197.87501 76.123155 198.2831 75.3125 199.09375 C 74.50182 199.90442 74.093736 200.93876 74.09375 202.21875 C 74.093737 203.45609 74.501824 204.47058 75.3125 205.28125 C 76.123152 206.09192 77.137648 206.5 78.375 206.5 C 82.172313 206.5 85.397308 205.19642 88 202.59375 C 90.645304 199.99109 91.968716 196.79734 91.96875 193 C 91.968719 189.37335 90.704801 186.27876 88.1875 183.71875 C 90.704804 181.11611 91.968716 177.98186 91.96875 174.3125 C 91.968719 170.5152 90.645303 167.32146 88 164.71875 C 85.397309 162.11613 82.17231 160.81254 78.375 160.8125 z M 144.6875 160.9375 C 143.40749 160.93754 142.34191 161.34563 141.53125 162.15625 C 140.76325 162.92429 140.375 163.93879 140.375 165.21875 L 140.375 202.21875 C 140.375 203.49875 140.76324 204.53309 141.53125 205.34375 C 142.34191 206.11175 143.40749 206.5 144.6875 206.5 C 145.96749 206.5 147.00183 206.11175 147.8125 205.34375 C 148.62315 204.53308 149.03124 203.49876 149.03125 202.21875 L 149.03125 165.21875 C 149.03124 162.36013 147.58882 160.93755 144.6875 160.9375 z M 111.71875 173.9375 C 107.11073 173.93753 103.21982 175.49895 100.0625 178.65625 C 96.947828 181.77094 95.374999 185.64201 95.375 190.25 C 95.374997 194.85801 96.947826 198.74892 100.0625 201.90625 C 103.21982 205.06358 107.11074 206.625 111.71875 206.625 L 117.40625 206.625 C 118.68622 206.625 119.70072 206.21691 120.46875 205.40625 C 121.27939 204.59558 121.68747 203.56125 121.6875 202.28125 C 121.68747 201.00125 121.27938 199.98676 120.46875 199.21875 C 119.70072 198.40809 118.68623 198.00001 117.40625 198 L 111.71875 198 C 109.5854 198.00001 107.74332 197.24334 106.25 195.75 C 104.75665 194.21401 104.03124 192.38334 104.03125 190.25 C 104.03124 188.11668 104.75665 186.30585 106.25 184.8125 C 107.74332 183.31919 109.5854 182.56252 111.71875 182.5625 C 112.2734 182.56252 112.82031 182.60218 113.375 182.6875 L 108.75 187.25 C 107.81132 188.18868 107.34373 189.18334 107.34375 190.25 C 107.34373 191.44468 107.77165 192.47902 108.625 193.375 C 109.52098 194.27101 110.58656 194.71876 111.78125 194.71875 C 112.8479 194.71876 113.84256 194.27102 114.78125 193.375 L 122.96875 185.375 C 124.20605 184.43635 124.81247 183.28302 124.8125 181.875 C 124.81247 180.80836 124.38455 179.83352 123.53125 178.9375 C 120.28855 175.60953 116.3694 173.93753 111.71875 173.9375 z M 132.5625 173.9375 C 131.28249 173.93753 130.21691 174.34561 129.40625 175.15625 C 128.63825 175.92428 128.25 176.93878 128.25 178.21875 L 128.25 202.21875 C 128.25 203.49875 128.63824 204.53309 129.40625 205.34375 C 130.21691 206.11175 131.28249 206.5 132.5625 206.5 C 133.84249 206.5 134.87683 206.11175 135.6875 205.34375 C 136.49815 204.53308 136.90624 203.49876 136.90625 202.21875 L 136.90625 178.21875 C 136.90624 175.36011 135.46382 173.93753 132.5625 173.9375 z M 168.84375 173.9375 C 164.23573 173.93753 160.34483 175.49895 157.1875 178.65625 C 154.07283 181.77094 152.5 185.64201 152.5 190.25 L 152.5 215.28125 C 152.5 216.56124 152.88824 217.59558 153.65625 218.40625 C 154.46691 219.2169 155.53249 219.62499 156.8125 219.625 C 158.09249 219.62499 159.12683 219.21691 159.9375 218.40625 C 160.74815 217.59557 161.15624 216.56125 161.15625 215.28125 L 161.15625 190.25 C 161.15624 188.11668 161.88165 186.30585 163.375 184.8125 C 164.86832 183.31919 166.71039 182.56252 168.84375 182.5625 C 170.97706 182.56252 172.78789 183.31918 174.28125 184.8125 C 175.81722 186.30585 176.56248 188.11668 176.5625 190.25 C 176.56247 192.38335 175.81722 194.21401 174.28125 195.75 C 172.78789 197.24334 170.97706 198.00001 168.84375 198 C 167.56373 198.00001 166.49815 198.40809 165.6875 199.21875 C 164.91948 199.98676 164.53124 201.00125 164.53125 202.28125 C 164.53123 203.56125 164.91948 204.59558 165.6875 205.40625 C 166.49815 206.21692 167.56373 206.625 168.84375 206.625 C 173.45173 206.625 177.31139 205.06358 180.46875 201.90625 C 183.62605 198.74892 185.21871 194.858 185.21875 190.25 C 185.21871 185.64202 183.62605 181.77095 180.46875 178.65625 C 177.31139 175.49895 173.45172 173.93753 168.84375 173.9375 z M 211.9375 173.9375 C 210.65747 173.93753 209.59189 174.34561 208.78125 175.15625 C 207.97056 175.92428 207.59373 176.93878 207.59375 178.21875 L 207.59375 192.6875 C 207.59373 194.13818 207.07506 195.38226 206.09375 196.40625 C 205.1124 197.38759 203.9194 197.875 202.46875 197.875 C 201.01807 197.87501 199.77399 197.38759 198.75 196.40625 C 197.76865 195.38226 197.28124 194.13818 197.28125 192.6875 L 197.28125 178.34375 C 197.28124 177.06378 196.87316 176.02945 196.0625 175.21875 C 195.25182 174.40811 194.21748 174.00004 192.9375 174 C 191.65749 174.00003 190.59191 174.40812 189.78125 175.21875 C 189.01325 176.02945 188.625 177.06378 188.625 178.34375 L 188.625 192.6875 C 188.625 196.61284 189.94841 199.88592 192.59375 202.53125 C 195.23907 205.17658 198.5434 206.5 202.46875 206.5 C 206.3514 206.5 209.60465 205.17658 212.25 202.53125 C 214.8953 199.84326 216.21872 196.57018 216.21875 192.6875 L 216.21875 178.21875 C 216.21872 176.93878 215.81064 175.92428 215 175.15625 C 214.23197 174.34561 213.21747 173.93753 211.9375 173.9375 z M 224.0625 173.9375 C 222.78249 173.93753 221.71691 174.34561 220.90625 175.15625 C 220.13825 175.92428 219.75 176.93878 219.75 178.21875 C 219.75 179.45611 220.15808 180.49045 220.96875 181.34375 C 221.77941 182.15444 222.82515 182.56252 224.0625 182.5625 L 232.625 182.5625 C 227.20632 188.70652 224.05225 192.30835 223.15625 193.375 C 219.23091 198.02567 217.25 201.44901 217.25 203.625 C 217.25 205.545 218.82282 206.5 221.9375 206.5 L 239.84375 206.5 C 241.08106 206.5 242.12681 206.09192 242.9375 205.28125 C 243.74814 204.47058 244.15622 203.45609 244.15625 202.21875 C 244.15622 200.93875 243.74814 199.90443 242.9375 199.09375 C 242.16947 198.28309 241.12372 197.875 239.84375 197.875 L 231.15625 197.875 C 235.9349 192.45635 239.06914 188.85452 240.5625 187.0625 C 244.48781 182.36919 246.43747 178.92603 246.4375 176.75 C 246.43747 174.8727 244.91572 173.93753 241.84375 173.9375 L 224.0625 173.9375 z "
         inkscape:radius="5.2191014"
         sodipodi:type="inkscape:offset" />
      <text
         xml:space="preserve"
         style="font-size:64px;font-style:normal;font-variant:normal;font-weight:normal;font-stretch:normal;text-align:start;line-height:100%;writing-mode:lr-tb;text-anchor:start;fill:#ffffff;fill-opacity:1;stroke:none;stroke-width:1px;stroke-linecap:butt;stroke-linejoin:miter;stroke-opacity:1;font-family:Alba Super"
         x="61.42857"
         y="205.93362"
         id="text3171"
         sodipodi:linespacing="100%"><tspan
           sodipodi:role="line"
           id="tspan3173"
           x="61.42857"
           y="205.93362"
           style="fill:#ffffff;font-family:Alba">Beilpuz</tspan></text>
    </g>
  </g>
</svg>
